<svg preserveAspectRatio="none" width="100%" height="100%" overflow="visible" style="display: block;" viewBox="0 0 18 18" fill="none" xmlns="http://www.w3.org/2000/svg">
<g id="Frame" clip-path="url(#clip0_0_15)">
<path id="Vector" d="M1.50029 7.81515C2.63086 7.2813 3.46704 7.20694 4.00882 7.59203C4.82152 8.16971 4.92341 10.524 6.77186 9.39881C8.62031 8.27363 5.98031 7.81515 6.55342 6.18521C7.12653 4.55528 9.0034 5.82139 9.19 4.03601C9.31435 2.84573 7.89059 2.3903 4.91864 2.6697" stroke="var(--stroke-0, #5D31FF)" stroke-width="1.2"/>
<path id="Vector_2" d="M13.5002 2.99998C11.3573 4.87071 10.6089 6.00039 11.2549 6.38897C12.224 6.97187 12.6352 6.15122 13.8177 6.38897C15.0002 6.62676 14.7442 8.22962 14.1222 8.22962C13.5002 8.22962 10.2789 7.81941 10.4412 9.69936C10.6034 11.5793 12.541 11.8576 12.541 12.9079C12.541 13.6081 12.1123 14.6797 11.2549 16.1228" stroke="var(--stroke-0, #5D31FF)" stroke-width="1.2" stroke-linecap="round"/>
<path id="Vector_3" d="M2.28955 12.3474C2.63136 12.1983 2.8883 12.089 3.06036 12.0195C4.50303 11.4367 5.5735 11.2993 6.27172 11.6074C7.5064 12.1522 7.03173 13.2526 7.41847 13.6579C7.80517 14.0633 8.77087 13.9454 8.77087 14.7165C8.77087 15.2306 8.59818 15.8114 8.2528 16.4588" stroke="var(--stroke-0, #5D31FF)" stroke-width="1.2" stroke-linecap="round"/>
<path id="Vector_4" d="M9.00029 16.5C13.1424 16.5 16.5003 13.1422 16.5003 9.00002C16.5003 4.85788 13.1424 1.50002 9.00029 1.50002C4.85816 1.50002 1.50029 4.85788 1.50029 9.00002C1.50029 13.1422 4.85816 16.5 9.00029 16.5Z" stroke="var(--stroke-0, #333333)" stroke-width="1.2"/>
</g>
<defs>
<clipPath id="clip0_0_15">
<rect width="18" height="18" fill="white"/>
</clipPath>
</defs>
</svg>
