<svg width="101" height="57" viewBox="0 0 101 57" fill="none" xmlns="http://www.w3.org/2000/svg">
<path d="M67.6788 0.0869186C69.5308 -0.0804544 75.5553 -0.054881 77.1118 0.60586C77.8739 0.929392 78.3174 1.41324 78.6912 2.14442C79.3828 3.4953 79.6377 5.17455 80.0022 6.64259L81.9011 14.1679C82.3089 15.7558 82.6912 17.3557 83.257 18.8959C83.5298 19.6405 84.1151 20.468 85.0208 20.0395C86.0531 18.8405 83.6835 4.28093 84.4788 1.38325C86.3148 -0.390052 89.0514 0.0950744 91.392 0.0678019C93.4473 0.0439279 95.5934 0.0214983 97.6316 0.245795C98.5797 0.350042 99.9952 1.11061 100.063 2.18605C100.272 3.38646 100.237 4.50981 100.244 5.71864L100.267 10.2087L100.268 25.8205L100.265 44.1201L100.252 50.2208C100.239 53.082 100.851 55.6789 97.0929 55.9746C96.8092 55.9944 96.5245 56.0096 96.2408 56.0202C94.1388 56.0982 89.2969 56.3605 87.5586 55.2549C87.1109 54.9705 86.8042 54.4533 86.5969 53.9791C85.2298 50.8544 83.2927 37.5472 81.7507 36.2556C81.2936 35.873 80.4856 36.0322 79.941 36.0956C79.8331 37.7167 80.1441 40.7899 80.2936 42.4264L80.9087 49.6662C81.0217 51.0221 81.3318 53.369 81.0285 54.6114C79.297 56.1957 77.6292 56.0567 75.4151 56.023C72.7423 55.9823 70.0108 56.1191 67.3546 55.8978C66.0431 55.7886 64.7466 54.8832 64.6599 53.4969C64.4831 51.417 64.5394 49.359 64.5412 47.2797L64.5346 36.1477L64.5371 14.6907L64.5451 7.67266C64.546 6.39374 64.5396 5.11712 64.5655 3.83803C64.6083 1.7191 65.4474 0.397026 67.6788 0.0869186Z" fill="white"/>
<path d="M3.91368 0.0920604C4.12541 0.0812703 4.3373 0.0747295 4.54928 0.0722656L21.0698 0.074559L26.57 0.0870485C28.3677 0.102596 30.6788 -0.126543 32.0253 1.19927C32.4686 1.6358 32.7452 2.53715 32.786 3.15176C32.9341 5.38309 32.8166 7.64169 32.8527 9.8788C32.8555 13.9427 32.8606 18.0452 32.8478 22.0984C32.8371 25.4926 31.8888 26.9432 28.8755 28.5732C27.9705 29.0628 27.2176 29.4644 26.2473 29.9054C24.2719 30.8029 21.208 31.7461 19.6735 33.2382C19.648 33.8919 19.6695 34.2345 19.7331 34.888C23.5408 35.0842 27.5719 34.8568 31.3775 35.1458C32.5901 35.2378 33.7487 36.7029 33.7915 37.9778C33.8656 40.1859 33.8197 42.4326 33.8283 44.6654L33.8552 50.0326C33.8621 51.4032 33.9412 53.2075 33.6645 54.5157C32.3674 55.8597 31.2793 55.9563 29.5548 56.0268L12.4732 56.0407L6.73481 56.0279C5.53457 56.0224 4.3045 56.0621 3.10944 55.9412C2.47513 55.8771 1.64081 55.7201 1.13623 55.3206C0.556368 54.8616 0.256031 54.1683 0.173449 53.4508C-0.123829 50.8685 0.0512752 47.6105 0.0507655 44.9728C0.0501708 41.5988 -0.111425 38.1321 0.152039 34.7682C0.235131 33.7078 0.304883 31.7353 0.964605 30.8617C2.25474 29.1531 7.3721 26.8515 9.45416 25.7863C10.7061 25.1458 13.5295 23.8329 14.3406 22.7969C14.5285 22.5568 14.5529 22.3433 14.5138 22.0508C14.4873 21.8535 14.4347 21.5966 14.2579 21.4754C12.7149 20.4168 4.01623 21.9749 1.89637 20.3137C1.13138 19.7142 0.847189 18.8246 0.728923 17.8957C0.406411 15.3628 0.610827 12.1532 0.618474 9.54269C0.624676 7.4196 0.438867 5.02566 0.736995 2.94259C0.821616 2.351 1.00895 1.79128 1.38525 1.31983C2.0301 0.511683 2.92134 0.195458 3.91368 0.0920604Z" fill="white"/>
<path d="M39.6949 0.0980724C43.1285 -0.0639481 47.0414 0.137494 50.5318 0.0661265C53.3709 0.00809821 56.5418 0.0663818 59.3748 0.206992C59.9676 0.249388 60.3404 0.411408 60.84 0.708517C62.6116 1.76195 62.2969 4.18512 62.3037 6.03982L62.3067 11.1406C62.3157 15.692 63.4138 19.7921 57.2224 19.3829C56.2172 19.3165 53.5851 19.3775 52.6263 19.5412C52.4886 20.0192 52.1114 21.4395 52.8009 21.6134C55.0513 22.181 57.7627 21.5567 59.9912 22.2415C60.6429 22.4418 61.1439 24.2899 61.1474 24.9295C61.1589 26.9754 61.9783 32.4667 59.2416 33.0994C57.6263 33.4729 54.4818 33.3015 52.6129 33.4855C52.492 33.948 52.1431 35.3343 52.8327 35.5549C55.2795 36.3375 59.0052 35.1751 61.2116 36.5076C62.1978 37.1031 62.2644 39.5629 62.2963 40.6517L62.3292 48.9541C62.3335 50.3884 62.3675 51.8728 62.2987 53.302C62.1476 56.4413 57.97 56.0328 55.7907 56.0385L49.7856 56.0415L42.8647 56.0194C41.1567 56.0088 36.5955 56.3764 36.2677 54.021C35.9377 51.6491 36.0748 48.8504 36.0768 46.4215L36.0679 33.6226L36.0596 14.2044C36.0589 10.7495 36.0209 7.28917 36.0986 3.83584C36.1599 1.11242 37.0153 0.304103 39.6949 0.0980724Z" fill="white"/>
</svg>
